<svg width="17" height="19" viewBox="0 0 17 19" fill="none" xmlns="http://www.w3.org/2000/svg">
<path d="M5.33333 6.66667H10.3333V7.77778H5.33333V6.66667Z" fill="currentColor"/>
<path d="M5.33333 8.88889H10.3333V10H5.33333V8.88889Z" fill="currentColor"/>
<path d="M5.33333 11.1111H10.3333V12.2222H5.33333V11.1111Z" fill="currentColor"/>
<path d="M5.33333 13.3333H10.3333V14.4444H5.33333V13.3333Z" fill="currentColor"/>
<path d="M3.11111 4.44444H4.22222V5.55555H3.11111V4.44444Z" fill="currentColor"/>
<path d="M3.11111 6.66667H4.22222V7.77778H3.11111V6.66667Z" fill="currentColor"/>
<path d="M3.11111 8.88889H4.22222V10H3.11111V8.88889Z" fill="currentColor"/>
<path d="M3.11111 11.1111H4.22222V12.2222H3.11111V11.1111Z" fill="currentColor"/>
<path d="M3.11111 13.3333H4.22222V14.4444H3.11111V13.3333Z" fill="currentColor"/>
<path d="M5.33333 4.44444V5.55555H10.1444C9.92581 5.21155 9.7592 4.83714 9.65 4.44444H5.33333Z" fill="currentColor"/>
<path d="M12.5555 7.34445V17.7778H1.44444V2.22223H9.65555C9.76302 1.82984 9.92775 1.45544 10.1444 1.11111H1.44444C1.14975 1.11111 0.867139 1.22818 0.658765 1.43655C0.450391 1.64493 0.333328 1.92754 0.333328 2.22223V17.7778C0.333328 18.0725 0.450391 18.3551 0.658765 18.5635C0.867139 18.7718 1.14975 18.8889 1.44444 18.8889H12.5555C12.8502 18.8889 13.1328 18.7718 13.3412 18.5635C13.5496 18.3551 13.6667 18.0725 13.6667 17.7778V7.5C13.291 7.49855 12.9172 7.44622 12.5555 7.34445Z" fill="currentColor"/>
<path d="M13.6667 6.11111C15.2008 6.11111 16.4444 4.86746 16.4444 3.33333C16.4444 1.79921 15.2008 0.555557 13.6667 0.555557C12.1325 0.555557 10.8889 1.79921 10.8889 3.33333C10.8889 4.86746 12.1325 6.11111 13.6667 6.11111Z" fill="currentColor"/>
</svg>
